<svg xmlns="http://www.w3.org/2000/svg" xmlns:xlink="http://www.w3.org/1999/xlink" width="500" zoomAndPan="magnify" viewBox="0 0 375 374.999991" height="500" preserveAspectRatio="xMidYMid meet" version="1.0"><defs><g/></defs><g fill="#000000" fill-opacity="1"><g transform="translate(5.991232, 191.718561)"><g><path d="M 17.6875 -34.6875 C 20.988281 -34.6875 23.984375 -33.96875 26.671875 -32.53125 C 29.367188 -31.09375 31.460938 -29.078125 32.953125 -26.484375 C 34.441406 -23.890625 35.1875 -20.84375 35.1875 -17.34375 C 35.1875 -13.882812 34.359375 -10.863281 32.703125 -8.28125 C 31.054688 -5.695312 28.816406 -3.671875 25.984375 -2.203125 C 23.160156 -0.734375 20.148438 0 16.953125 0 L 3.875 0 L 3.875 -34.6875 Z M 14.890625 -5.59375 C 19.203125 -5.59375 22.582031 -6.617188 25.03125 -8.671875 C 27.488281 -10.734375 28.71875 -13.625 28.71875 -17.34375 C 28.71875 -21.164062 27.597656 -24.082031 25.359375 -26.09375 C 23.117188 -28.101562 19.910156 -29.109375 15.734375 -29.109375 L 10.046875 -29.109375 L 10.046875 -5.59375 Z M 14.890625 -5.59375 "/></g></g></g><g fill="#000000" fill-opacity="1"><g transform="translate(43.179263, 191.718561)"><g><path d="M 20.4375 -34.6875 L 35.375 0 L 28.328125 0 L 25.09375 -7.9375 L 10.046875 -7.9375 L 6.90625 0 L 0 0 L 15.09375 -34.6875 Z M 12.15625 -13.234375 L 22.9375 -13.234375 L 17.59375 -27.34375 Z M 12.15625 -13.234375 "/></g></g></g><g fill="#000000" fill-opacity="1"><g transform="translate(78.554436, 191.718561)"><g><path d="M 7.0625 -34.6875 L 15.578125 -20.875 L 24.203125 -34.6875 L 31.5625 -34.6875 L 18.515625 -14.84375 L 18.515625 0 L 12.34375 0 L 12.34375 -14.84375 L -0.6875 -34.6875 Z M 7.0625 -34.6875 "/></g></g></g><g fill="#000000" fill-opacity="1"><g transform="translate(109.421977, 191.718561)"><g><path d="M 20.4375 -34.6875 L 35.375 0 L 28.328125 0 L 25.09375 -7.9375 L 10.046875 -7.9375 L 6.90625 0 L 0 0 L 15.09375 -34.6875 Z M 12.15625 -13.234375 L 22.9375 -13.234375 L 17.59375 -27.34375 Z M 12.15625 -13.234375 "/></g></g></g><g fill="#000000" fill-opacity="1"><g transform="translate(144.79715, 191.718561)"><g><path d="M 10.046875 -34.6875 L 10.046875 -5.59375 L 24.796875 -5.59375 L 24.796875 0 L 3.875 0 L 3.875 -34.6875 Z M 10.046875 -34.6875 "/></g></g></g><g fill="#000000" fill-opacity="1"><g transform="translate(170.217783, 191.718561)"><g/></g></g><g fill="#000000" fill-opacity="1"><g transform="translate(183.8387, 191.718561)"><g><path d="M 10.4375 -34.6875 L 22.203125 -7.5 L 22.296875 -7.5 L 34.15625 -34.6875 L 40.125 -34.6875 L 40.125 0 L 36.015625 0 L 36.015625 -29.109375 L 35.921875 -29.109375 L 23.46875 0 L 20.96875 0 L 8.53125 -29.109375 L 8.421875 -29.109375 L 8.421875 0 L 4.3125 0 L 4.3125 -34.6875 Z M 10.4375 -34.6875 "/></g></g></g><g fill="#000000" fill-opacity="1"><g transform="translate(228.278154, 191.718561)"><g><path d="M 8.28125 -34.6875 L 8.28125 -13.8125 C 8.28125 -10.289062 9.03125 -7.613281 10.53125 -5.78125 C 12.03125 -3.945312 14.269531 -3 17.25 -2.9375 C 20.21875 -2.96875 22.445312 -3.90625 23.9375 -5.75 C 25.425781 -7.601562 26.1875 -10.226562 26.21875 -13.625 L 26.21875 -34.6875 L 30.328125 -34.6875 L 30.328125 -13.078125 C 30.328125 -8.671875 29.179688 -5.25 26.890625 -2.8125 C 24.609375 -0.382812 21.394531 0.84375 17.25 0.875 C 13.164062 0.875 9.972656 -0.351562 7.671875 -2.8125 C 5.367188 -5.28125 4.203125 -8.71875 4.171875 -13.125 L 4.171875 -34.6875 Z M 8.28125 -34.6875 "/></g></g></g><g fill="#000000" fill-opacity="1"><g transform="translate(262.7714, 191.718561)"><g><path d="M 8.421875 -34.6875 L 8.421875 -19.703125 L 9.015625 -19.703125 L 24.796875 -34.6875 L 30.71875 -34.6875 L 13.578125 -18.859375 L 31.5625 0 L 25.53125 0 L 9.015625 -17.640625 L 8.421875 -17.640625 L 8.421875 0 L 4.3125 0 L 4.3125 -34.6875 Z M 8.421875 -34.6875 "/></g></g></g><g fill="#000000" fill-opacity="1"><g transform="translate(293.63894, 191.718561)"><g><path d="M 19.453125 -34.6875 L 34.203125 0 L 29.40625 0 L 25.875 -8.53125 L 8.53125 -8.53125 L 4.953125 0 L 0.296875 0 L 15.578125 -34.6875 Z M 17.34375 -29.40625 L 10.140625 -12.34375 L 24.296875 -12.34375 L 17.4375 -29.40625 Z M 17.34375 -29.40625 "/></g></g></g><g fill="#000000" fill-opacity="1"><g transform="translate(328.132185, 191.718561)"><g><path d="M 27.59375 -34.6875 L 27.59375 -30.875 L 16.125 -30.875 L 16.125 0 L 12 0 L 12 -30.875 L 0.53125 -30.875 L 0.53125 -34.6875 Z M 27.59375 -34.6875 "/></g></g></g><g fill="#000000" fill-opacity="1"><g transform="translate(356.255936, 191.718561)"><g><path d="M 8.421875 -34.6875 L 8.421875 0 L 4.3125 0 L 4.3125 -34.6875 Z M 8.421875 -34.6875 "/></g></g></g></svg>