<svg xmlns="http://www.w3.org/2000/svg" xmlns:xlink="http://www.w3.org/1999/xlink" width="40" zoomAndPan="magnify" viewBox="0 0 30 30.000001" height="40" preserveAspectRatio="xMidYMid meet" version="1.0"><defs><clipPath id="5ad43564a6"><path d="M 0.484375 0 L 25.746094 0 L 25.746094 25.261719 L 0.484375 25.261719 Z M 0.484375 0 " clip-rule="nonzero"/></clipPath><clipPath id="38225d3fa9"><path d="M 13.113281 0 C 6.140625 0 0.484375 5.65625 0.484375 12.628906 C 0.484375 19.605469 6.140625 25.261719 13.113281 25.261719 C 20.089844 25.261719 25.746094 19.605469 25.746094 12.628906 C 25.746094 5.65625 20.089844 0 13.113281 0 " clip-rule="nonzero"/></clipPath><clipPath id="c0748169fb"><path d="M 15 23 L 19 23 L 19 29.03125 L 15 29.03125 Z M 15 23 " clip-rule="nonzero"/></clipPath><clipPath id="7c6201e124"><path d="M 12 23 L 16 23 L 16 29.03125 L 12 29.03125 Z M 12 23 " clip-rule="nonzero"/></clipPath><clipPath id="898305f40d"><path d="M 24 18 L 27.117188 18 L 27.117188 25 L 24 25 Z M 24 18 " clip-rule="nonzero"/></clipPath><clipPath id="9574fd3e98"><path d="M 20 17 L 27.117188 17 L 27.117188 21 L 20 21 Z M 20 17 " clip-rule="nonzero"/></clipPath><clipPath id="1f8ce03f4c"><path d="M 4.617188 18 L 8 18 L 8 25 L 4.617188 25 Z M 4.617188 18 " clip-rule="nonzero"/></clipPath><clipPath id="0d78a79c17"><path d="M 4.617188 17 L 11 17 L 11 21 L 4.617188 21 Z M 4.617188 17 " clip-rule="nonzero"/></clipPath><clipPath id="fcafcff669"><path d="M 24 9 L 27.117188 9 L 27.117188 15 L 24 15 Z M 24 9 " clip-rule="nonzero"/></clipPath><clipPath id="1d7cf8b746"><path d="M 20 7 L 27.117188 7 L 27.117188 12 L 20 12 Z M 20 7 " clip-rule="nonzero"/></clipPath><clipPath id="8cfca0c9d6"><path d="M 4.617188 9 L 8 9 L 8 15 L 4.617188 15 Z M 4.617188 9 " clip-rule="nonzero"/></clipPath><clipPath id="e5a8b6f52e"><path d="M 4.617188 7 L 11 7 L 11 12 L 4.617188 12 Z M 4.617188 7 " clip-rule="nonzero"/></clipPath><clipPath id="a152ac3688"><path d="M 12 2.980469 L 19 2.980469 L 19 7 L 12 7 Z M 12 2.980469 " clip-rule="nonzero"/></clipPath></defs><g clip-path="url(#5ad43564a6)"><g clip-path="url(#38225d3fa9)"><path fill="#ef9505" d="M 0.484375 0 L 25.746094 0 L 25.746094 25.261719 L 0.484375 25.261719 Z M 0.484375 0 " fill-opacity="1" fill-rule="nonzero"/></g></g><path fill="#9e389e" d="M 24.824219 11.28125 C 24.824219 11.230469 24.816406 11.179688 24.804688 11.132812 C 24.800781 11.113281 24.800781 11.097656 24.796875 11.082031 C 24.761719 10.953125 24.699219 10.84375 24.605469 10.75 C 24.59375 10.738281 24.578125 10.726562 24.566406 10.714844 C 24.53125 10.679688 24.492188 10.652344 24.449219 10.625 C 24.441406 10.617188 24.433594 10.609375 24.425781 10.605469 L 16.273438 5.871094 C 16.003906 5.714844 15.730469 5.714844 15.460938 5.871094 L 7.308594 10.605469 C 7.300781 10.609375 7.292969 10.617188 7.285156 10.625 C 7.242188 10.648438 7.203125 10.679688 7.167969 10.714844 C 7.15625 10.726562 7.140625 10.738281 7.128906 10.75 C 7.035156 10.84375 6.972656 10.953125 6.9375 11.082031 C 6.933594 11.097656 6.929688 11.113281 6.925781 11.132812 C 6.917969 11.179688 6.910156 11.230469 6.90625 11.28125 C 6.90625 11.289062 6.902344 11.300781 6.902344 11.3125 L 6.902344 20.777344 C 6.902344 21.089844 7.039062 21.324219 7.308594 21.484375 L 15.460938 26.214844 C 15.472656 26.222656 15.480469 26.222656 15.492188 26.230469 C 15.535156 26.25 15.578125 26.269531 15.625 26.285156 C 15.644531 26.289062 15.660156 26.296875 15.675781 26.300781 C 15.804688 26.335938 15.929688 26.335938 16.058594 26.300781 C 16.074219 26.296875 16.089844 26.289062 16.109375 26.285156 C 16.15625 26.269531 16.199219 26.25 16.242188 26.230469 C 16.253906 26.222656 16.261719 26.222656 16.273438 26.214844 L 24.425781 21.484375 C 24.695312 21.324219 24.828125 21.089844 24.828125 20.777344 L 24.828125 11.3125 C 24.828125 11.300781 24.828125 11.289062 24.824219 11.28125 Z M 15.867188 7.523438 L 22.394531 11.3125 L 15.867188 15.101562 L 9.339844 11.3125 Z M 8.527344 12.726562 L 15.054688 16.515625 L 15.054688 24.09375 L 8.527344 20.304688 Z M 23.207031 20.304688 L 16.679688 24.09375 L 16.679688 16.515625 L 23.207031 12.726562 Z M 23.207031 20.304688 " fill-opacity="1" fill-rule="nonzero"/><g clip-path="url(#c0748169fb)"><path fill="#efc200" d="M 18.964844 23.710938 L 15.867188 25.507812 L 15.867188 29.105469 L 18.964844 27.308594 Z M 18.964844 23.710938 " fill-opacity="1" fill-rule="nonzero"/></g><g clip-path="url(#7c6201e124)"><path fill="#ffc719" d="M 12.769531 23.710938 L 12.769531 27.308594 L 15.867188 29.105469 L 15.867188 25.507812 Z M 12.769531 23.710938 " fill-opacity="1" fill-rule="nonzero"/></g><path fill="#ffda71" d="M 15.867188 21.910156 L 12.769531 23.710938 L 15.867188 25.507812 L 18.964844 23.710938 Z M 15.867188 21.910156 " fill-opacity="1" fill-rule="nonzero"/><g clip-path="url(#898305f40d)"><path fill="#efc200" d="M 27.117188 18.976562 L 24.019531 20.777344 L 24.019531 24.375 L 27.117188 22.574219 Z M 27.117188 18.976562 " fill-opacity="1" fill-rule="nonzero"/></g><path fill="#ffc719" d="M 20.921875 18.976562 L 20.921875 22.574219 L 24.019531 24.371094 L 24.019531 20.777344 Z M 20.921875 18.976562 " fill-opacity="1" fill-rule="nonzero"/><g clip-path="url(#9574fd3e98)"><path fill="#ffda71" d="M 24.019531 17.179688 L 20.921875 18.976562 L 24.019531 20.777344 L 27.117188 18.976562 Z M 24.019531 17.179688 " fill-opacity="1" fill-rule="nonzero"/></g><path fill="#efc200" d="M 10.8125 18.976562 L 7.714844 20.777344 L 7.714844 24.375 L 10.8125 22.574219 Z M 10.8125 18.976562 " fill-opacity="1" fill-rule="nonzero"/><g clip-path="url(#1f8ce03f4c)"><path fill="#ffc719" d="M 4.617188 18.976562 L 4.617188 22.574219 L 7.714844 24.371094 L 7.714844 20.777344 Z M 4.617188 18.976562 " fill-opacity="1" fill-rule="nonzero"/></g><g clip-path="url(#0d78a79c17)"><path fill="#ffda71" d="M 7.714844 17.179688 L 4.617188 18.976562 L 7.714844 20.777344 L 10.8125 18.976562 Z M 7.714844 17.179688 " fill-opacity="1" fill-rule="nonzero"/></g><path fill="#efc200" d="M 18.964844 14.246094 L 15.867188 16.042969 L 15.867188 19.640625 L 18.964844 17.84375 Z M 18.964844 14.246094 " fill-opacity="1" fill-rule="nonzero"/><path fill="#ffc719" d="M 12.769531 14.246094 L 12.769531 17.84375 L 15.867188 19.640625 L 15.867188 16.042969 Z M 12.769531 14.246094 " fill-opacity="1" fill-rule="nonzero"/><path fill="#ffda71" d="M 15.867188 12.445312 L 12.769531 14.246094 L 15.867188 16.042969 L 18.964844 14.246094 Z M 15.867188 12.445312 " fill-opacity="1" fill-rule="nonzero"/><g clip-path="url(#fcafcff669)"><path fill="#efc200" d="M 27.117188 9.511719 L 24.019531 11.3125 L 24.019531 14.910156 L 27.117188 13.109375 Z M 27.117188 9.511719 " fill-opacity="1" fill-rule="nonzero"/></g><path fill="#ffc719" d="M 20.921875 9.511719 L 20.921875 13.109375 L 24.019531 14.90625 L 24.019531 11.3125 Z M 20.921875 9.511719 " fill-opacity="1" fill-rule="nonzero"/><g clip-path="url(#1d7cf8b746)"><path fill="#ffda71" d="M 24.019531 7.714844 L 20.921875 9.511719 L 24.019531 11.3125 L 27.117188 9.511719 Z M 24.019531 7.714844 " fill-opacity="1" fill-rule="nonzero"/></g><path fill="#efc200" d="M 10.8125 9.511719 L 7.714844 11.3125 L 7.714844 14.910156 L 10.8125 13.109375 Z M 10.8125 9.511719 " fill-opacity="1" fill-rule="nonzero"/><g clip-path="url(#8cfca0c9d6)"><path fill="#ffc719" d="M 4.617188 9.511719 L 4.617188 13.109375 L 7.714844 14.90625 L 7.714844 11.3125 Z M 4.617188 9.511719 " fill-opacity="1" fill-rule="nonzero"/></g><g clip-path="url(#e5a8b6f52e)"><path fill="#ffda71" d="M 7.714844 7.714844 L 4.617188 9.511719 L 7.714844 11.3125 L 10.8125 9.511719 Z M 7.714844 7.714844 " fill-opacity="1" fill-rule="nonzero"/></g><path fill="#efc200" d="M 18.964844 4.78125 L 15.867188 6.578125 L 15.867188 10.175781 L 18.964844 8.378906 Z M 18.964844 4.78125 " fill-opacity="1" fill-rule="nonzero"/><path fill="#ffc719" d="M 12.769531 4.78125 L 12.769531 8.378906 L 15.867188 10.175781 L 15.867188 6.578125 Z M 12.769531 4.78125 " fill-opacity="1" fill-rule="nonzero"/><g clip-path="url(#a152ac3688)"><path fill="#ffda71" d="M 15.867188 2.980469 L 12.769531 4.78125 L 15.867188 6.578125 L 18.964844 4.78125 Z M 15.867188 2.980469 " fill-opacity="1" fill-rule="nonzero"/></g></svg>