<svg xmlns="http://www.w3.org/2000/svg" xmlns:xlink="http://www.w3.org/1999/xlink" width="300" zoomAndPan="magnify" viewBox="0 0 224.87999 60" height="80" preserveAspectRatio="xMidYMid meet" version="1.0"><defs><g/><clipPath id="83d4d5ff91"><path d="M 2.167969 0.015625 L 53.007812 0.015625 L 53.007812 50.855469 L 2.167969 50.855469 Z M 2.167969 0.015625 " clip-rule="nonzero"/></clipPath><clipPath id="7cc7190d8e"><path d="M 27.585938 0.015625 C 13.546875 0.015625 2.167969 11.398438 2.167969 25.433594 C 2.167969 39.472656 13.546875 50.855469 27.585938 50.855469 C 41.625 50.855469 53.007812 39.472656 53.007812 25.433594 C 53.007812 11.398438 41.625 0.015625 27.585938 0.015625 " clip-rule="nonzero"/></clipPath><clipPath id="27e5164681"><path d="M 33 47 L 40 47 L 40 58.484375 L 33 58.484375 Z M 33 47 " clip-rule="nonzero"/></clipPath><clipPath id="e856c020f8"><path d="M 27 47 L 34 47 L 34 58.484375 L 27 58.484375 Z M 27 47 " clip-rule="nonzero"/></clipPath><clipPath id="9939982caf"><path d="M 49 38 L 56.210938 38 L 56.210938 49 L 49 49 Z M 49 38 " clip-rule="nonzero"/></clipPath><clipPath id="0779f9f045"><path d="M 43 34 L 56.210938 34 L 56.210938 42 L 43 42 Z M 43 34 " clip-rule="nonzero"/></clipPath><clipPath id="6db6307351"><path d="M 10.484375 38 L 17 38 L 17 49 L 10.484375 49 Z M 10.484375 38 " clip-rule="nonzero"/></clipPath><clipPath id="f166d16bd5"><path d="M 10.484375 34 L 24 34 L 24 42 L 10.484375 42 Z M 10.484375 34 " clip-rule="nonzero"/></clipPath><clipPath id="01f4e89251"><path d="M 49 19 L 56.210938 19 L 56.210938 30 L 49 30 Z M 49 19 " clip-rule="nonzero"/></clipPath><clipPath id="501aef3819"><path d="M 43 15 L 56.210938 15 L 56.210938 23 L 43 23 Z M 43 15 " clip-rule="nonzero"/></clipPath><clipPath id="f4dc0b5738"><path d="M 10.484375 19 L 17 19 L 17 30 L 10.484375 30 Z M 10.484375 19 " clip-rule="nonzero"/></clipPath><clipPath id="e7d1763d12"><path d="M 10.484375 15 L 24 15 L 24 23 L 10.484375 23 Z M 10.484375 15 " clip-rule="nonzero"/></clipPath><clipPath id="85a352f198"><path d="M 27 6.011719 L 40 6.011719 L 40 14 L 27 14 Z M 27 6.011719 " clip-rule="nonzero"/></clipPath></defs><g fill="#000000" fill-opacity="1"><g transform="translate(58.78959, 20.637705)"><g><path d="M 4.9375 -18.703125 L 4.9375 -18.34375 C 4.601562 -18.34375 4.4375 -18.222656 4.4375 -17.984375 C 4.4375 -17.898438 4.488281 -17.664062 4.59375 -17.28125 L 7.53125 -5.90625 L 7.578125 -5.90625 L 10.734375 -16.921875 C 10.804688 -17.160156 10.867188 -17.363281 10.921875 -17.53125 C 10.972656 -17.707031 11 -17.859375 11 -17.984375 C 11 -18.085938 10.953125 -18.171875 10.859375 -18.234375 C 10.765625 -18.304688 10.644531 -18.34375 10.5 -18.34375 L 10.5 -18.703125 L 15.390625 -18.703125 L 15.390625 -18.34375 C 15.203125 -18.320312 15.078125 -18.269531 15.015625 -18.1875 C 14.953125 -18.101562 14.921875 -18.035156 14.921875 -17.984375 C 14.921875 -17.859375 14.941406 -17.738281 14.984375 -17.625 C 15.023438 -17.519531 15.097656 -17.296875 15.203125 -16.953125 L 18.359375 -5.75 L 18.421875 -5.75 L 21.34375 -17 C 21.363281 -17.070312 21.398438 -17.210938 21.453125 -17.421875 C 21.515625 -17.640625 21.546875 -17.800781 21.546875 -17.90625 C 21.546875 -18.195312 21.375 -18.34375 21.03125 -18.34375 L 21.03125 -18.703125 L 25.375 -18.703125 L 25.375 -18.34375 C 25.257812 -18.3125 25.164062 -18.269531 25.09375 -18.21875 C 25.03125 -18.164062 24.972656 -18.085938 24.921875 -17.984375 C 24.867188 -17.878906 24.816406 -17.742188 24.765625 -17.578125 C 24.710938 -17.421875 24.648438 -17.210938 24.578125 -16.953125 L 20.546875 -2.03125 C 20.441406 -1.664062 20.367188 -1.394531 20.328125 -1.21875 C 20.285156 -1.039062 20.265625 -0.882812 20.265625 -0.75 C 20.265625 -0.488281 20.425781 -0.359375 20.75 -0.359375 L 20.75 0 L 15.75 0 L 15.75 -0.359375 C 15.914062 -0.359375 16.035156 -0.390625 16.109375 -0.453125 C 16.191406 -0.523438 16.234375 -0.601562 16.234375 -0.6875 C 16.234375 -0.78125 16.210938 -0.894531 16.171875 -1.03125 C 16.140625 -1.164062 16.097656 -1.316406 16.046875 -1.484375 L 12.765625 -12.96875 L 12.71875 -12.96875 L 9.734375 -2.390625 C 9.597656 -1.890625 9.492188 -1.523438 9.421875 -1.296875 C 9.359375 -1.078125 9.328125 -0.898438 9.328125 -0.765625 C 9.328125 -0.660156 9.367188 -0.566406 9.453125 -0.484375 C 9.535156 -0.398438 9.65625 -0.359375 9.8125 -0.359375 L 9.8125 0 L 4.796875 0 L 4.796875 -0.359375 C 5.128906 -0.359375 5.296875 -0.460938 5.296875 -0.671875 C 5.296875 -0.804688 5.269531 -0.96875 5.21875 -1.15625 C 5.164062 -1.34375 5.085938 -1.632812 4.984375 -2.03125 L 1 -17.140625 C 0.863281 -17.648438 0.753906 -17.96875 0.671875 -18.09375 C 0.597656 -18.226562 0.46875 -18.3125 0.28125 -18.34375 L 0.28125 -18.703125 Z M 4.9375 -18.703125 "/></g></g></g><g fill="#000000" fill-opacity="1"><g transform="translate(84.078108, 20.637705)"><g><path d="M 17.078125 -12.6875 L 16.71875 -12.6875 C 16.71875 -13 16.472656 -13.15625 15.984375 -13.15625 L 5.65625 -13.15625 L 5.65625 -9.203125 L 12.328125 -9.203125 C 12.546875 -9.203125 12.722656 -9.222656 12.859375 -9.265625 C 13.003906 -9.316406 13.078125 -9.414062 13.078125 -9.5625 L 13.4375 -9.5625 L 13.4375 -6.3125 L 13.078125 -6.3125 C 13.078125 -6.40625 13.015625 -6.488281 12.890625 -6.5625 C 12.773438 -6.632812 12.585938 -6.671875 12.328125 -6.671875 L 5.65625 -6.671875 L 5.65625 -2.515625 L 16.15625 -2.515625 C 16.34375 -2.515625 16.515625 -2.539062 16.671875 -2.59375 C 16.828125 -2.644531 16.90625 -2.738281 16.90625 -2.875 L 17.265625 -2.875 L 17.265625 0.3125 L 16.90625 0.3125 C 16.90625 0.175781 16.828125 0.0859375 16.671875 0.046875 C 16.515625 0.015625 16.328125 0 16.109375 0 L 2.0625 0 L 2.0625 -0.359375 C 2.257812 -0.359375 2.382812 -0.40625 2.4375 -0.5 C 2.488281 -0.59375 2.515625 -0.757812 2.515625 -1 L 2.515625 -14.671875 C 2.515625 -14.910156 2.488281 -15.078125 2.4375 -15.171875 C 2.382812 -15.265625 2.257812 -15.3125 2.0625 -15.3125 L 2.0625 -15.671875 L 15.953125 -15.671875 C 16.460938 -15.671875 16.71875 -15.773438 16.71875 -15.984375 L 17.078125 -15.984375 Z M 17.078125 -12.6875 "/></g></g></g><g fill="#000000" fill-opacity="1"><g transform="translate(102.22931, 20.637705)"><g><path d="M 12.203125 -2.515625 C 14.273438 -2.515625 15.3125 -3.25 15.3125 -4.71875 C 15.3125 -5.488281 15.046875 -6.050781 14.515625 -6.40625 C 13.984375 -6.757812 13.226562 -6.9375 12.25 -6.9375 L 5.75 -6.9375 L 5.75 -2.515625 Z M 12.484375 -9.453125 C 13.234375 -9.453125 13.8125 -9.597656 14.21875 -9.890625 C 14.625 -10.179688 14.828125 -10.648438 14.828125 -11.296875 C 14.828125 -12.535156 14.054688 -13.15625 12.515625 -13.15625 L 5.75 -13.15625 L 5.75 -9.453125 Z M 12.609375 -15.671875 C 13.410156 -15.671875 14.132812 -15.566406 14.78125 -15.359375 C 15.425781 -15.148438 15.96875 -14.863281 16.40625 -14.5 C 16.851562 -14.132812 17.195312 -13.6875 17.4375 -13.15625 C 17.675781 -12.632812 17.796875 -12.066406 17.796875 -11.453125 C 17.796875 -10.804688 17.613281 -10.191406 17.25 -9.609375 C 16.882812 -9.023438 16.410156 -8.585938 15.828125 -8.296875 C 16.179688 -8.109375 16.507812 -7.90625 16.8125 -7.6875 C 17.125 -7.476562 17.390625 -7.222656 17.609375 -6.921875 C 17.828125 -6.617188 17.992188 -6.257812 18.109375 -5.84375 C 18.234375 -5.4375 18.296875 -4.941406 18.296875 -4.359375 C 18.296875 -3.628906 18.15625 -2.988281 17.875 -2.4375 C 17.601562 -1.894531 17.226562 -1.441406 16.75 -1.078125 C 16.269531 -0.722656 15.707031 -0.453125 15.0625 -0.265625 C 14.425781 -0.0859375 13.738281 0 13 0 L 2.0625 0 L 2.0625 -0.359375 C 2.28125 -0.359375 2.425781 -0.394531 2.5 -0.46875 C 2.582031 -0.550781 2.625 -0.703125 2.625 -0.921875 L 2.625 -14.71875 C 2.625 -14.957031 2.582031 -15.113281 2.5 -15.1875 C 2.425781 -15.269531 2.28125 -15.3125 2.0625 -15.3125 L 2.0625 -15.671875 Z M 12.609375 -15.671875 "/></g></g></g><g fill="#efc200" fill-opacity="1"><g transform="translate(121.814547, 20.637705)"><g><path d="M 10.65625 -18.953125 C 11.738281 -18.953125 12.726562 -18.816406 13.625 -18.546875 C 14.519531 -18.273438 15.289062 -17.898438 15.9375 -17.421875 C 16.59375 -16.953125 17.101562 -16.398438 17.46875 -15.765625 C 17.84375 -15.140625 18.03125 -14.46875 18.03125 -13.75 C 18.03125 -12.875 17.800781 -12.113281 17.34375 -11.46875 C 16.894531 -10.820312 16.257812 -10.378906 15.4375 -10.140625 L 15.4375 -10.09375 C 16.664062 -9.644531 17.578125 -9.019531 18.171875 -8.21875 C 18.773438 -7.425781 19.078125 -6.492188 19.078125 -5.421875 C 19.078125 -4.597656 18.882812 -3.832031 18.5 -3.125 C 18.125 -2.425781 17.570312 -1.828125 16.84375 -1.328125 C 16.125 -0.835938 15.253906 -0.453125 14.234375 -0.171875 C 13.222656 0.109375 12.09375 0.25 10.84375 0.25 C 9.195312 0.25 7.769531 0.117188 6.5625 -0.140625 C 5.351562 -0.410156 4.285156 -0.789062 3.359375 -1.28125 C 2.929688 -1.519531 2.609375 -1.707031 2.390625 -1.84375 C 2.179688 -1.988281 1.992188 -2.0625 1.828125 -2.0625 C 1.640625 -2.0625 1.46875 -1.984375 1.3125 -1.828125 L 0.90625 -1.984375 L 2.953125 -6.390625 L 3.34375 -6.171875 C 3.320312 -6.097656 3.3125 -6.039062 3.3125 -6 C 3.3125 -5.957031 3.3125 -5.914062 3.3125 -5.875 C 3.3125 -5.59375 3.488281 -5.273438 3.84375 -4.921875 C 4.207031 -4.566406 4.707031 -4.226562 5.34375 -3.90625 C 5.976562 -3.582031 6.722656 -3.3125 7.578125 -3.09375 C 8.429688 -2.882812 9.359375 -2.78125 10.359375 -2.78125 C 12.035156 -2.78125 13.300781 -3.03125 14.15625 -3.53125 C 15.007812 -4.039062 15.4375 -4.703125 15.4375 -5.515625 C 15.4375 -5.898438 15.34375 -6.269531 15.15625 -6.625 C 14.96875 -6.988281 14.664062 -7.304688 14.25 -7.578125 C 13.84375 -7.847656 13.316406 -8.066406 12.671875 -8.234375 C 12.035156 -8.398438 11.265625 -8.484375 10.359375 -8.484375 C 9.484375 -8.484375 8.875 -8.421875 8.53125 -8.296875 C 8.1875 -8.179688 8 -7.992188 7.96875 -7.734375 L 7.609375 -7.734375 L 7.609375 -11.9375 L 7.96875 -11.9375 C 8.019531 -11.695312 8.191406 -11.53125 8.484375 -11.4375 C 8.785156 -11.34375 9.265625 -11.296875 9.921875 -11.296875 C 11.421875 -11.296875 12.539062 -11.492188 13.28125 -11.890625 C 14.019531 -12.285156 14.390625 -12.84375 14.390625 -13.5625 C 14.390625 -14.226562 14.039062 -14.785156 13.34375 -15.234375 C 12.644531 -15.691406 11.679688 -15.921875 10.453125 -15.921875 C 9.578125 -15.921875 8.78125 -15.816406 8.0625 -15.609375 C 7.34375 -15.410156 6.726562 -15.164062 6.21875 -14.875 C 5.707031 -14.582031 5.304688 -14.28125 5.015625 -13.96875 C 4.734375 -13.664062 4.59375 -13.410156 4.59375 -13.203125 C 4.59375 -13.097656 4.601562 -13.003906 4.625 -12.921875 C 4.65625 -12.835938 4.679688 -12.769531 4.703125 -12.71875 L 4.390625 -12.453125 L 1.671875 -16.03125 L 2.03125 -16.234375 C 2.144531 -16.128906 2.273438 -16.078125 2.421875 -16.078125 C 2.535156 -16.078125 2.671875 -16.132812 2.828125 -16.25 C 2.984375 -16.375 3.207031 -16.550781 3.5 -16.78125 C 3.90625 -17.101562 4.351562 -17.394531 4.84375 -17.65625 C 5.332031 -17.925781 5.867188 -18.15625 6.453125 -18.34375 C 7.035156 -18.53125 7.671875 -18.675781 8.359375 -18.78125 C 9.054688 -18.894531 9.820312 -18.953125 10.65625 -18.953125 Z M 10.65625 -18.953125 "/></g></g></g><g fill="#000000" fill-opacity="1"><g transform="translate(58.78959, 51.371303)"><g><path d="M 11.5 -19.6875 C 12.6875 -19.6875 13.835938 -19.5625 14.953125 -19.3125 C 16.078125 -19.0625 17.128906 -18.734375 18.109375 -18.328125 C 18.410156 -18.203125 18.722656 -18.054688 19.046875 -17.890625 C 19.378906 -17.734375 19.617188 -17.65625 19.765625 -17.65625 C 19.941406 -17.65625 20.070312 -17.71875 20.15625 -17.84375 L 20.59375 -17.703125 L 18.53125 -13.703125 L 18.109375 -13.953125 C 18.140625 -14.085938 18.15625 -14.210938 18.15625 -14.328125 C 18.15625 -14.390625 18.003906 -14.546875 17.703125 -14.796875 C 17.398438 -15.046875 16.957031 -15.296875 16.375 -15.546875 C 15.800781 -15.796875 15.085938 -16.019531 14.234375 -16.21875 C 13.390625 -16.425781 12.40625 -16.53125 11.28125 -16.53125 C 9.363281 -16.53125 7.894531 -16.269531 6.875 -15.75 C 5.863281 -15.226562 5.359375 -14.515625 5.359375 -13.609375 C 5.359375 -13.160156 5.503906 -12.816406 5.796875 -12.578125 C 6.085938 -12.335938 6.519531 -12.160156 7.09375 -12.046875 C 7.664062 -11.929688 8.351562 -11.859375 9.15625 -11.828125 C 9.96875 -11.796875 10.898438 -11.78125 11.953125 -11.78125 C 13.285156 -11.78125 14.507812 -11.703125 15.625 -11.546875 C 16.75 -11.390625 17.707031 -11.097656 18.5 -10.671875 C 19.300781 -10.242188 19.929688 -9.65625 20.390625 -8.90625 C 20.847656 -8.15625 21.078125 -7.1875 21.078125 -6 C 21.078125 -5.0625 20.84375 -4.203125 20.375 -3.421875 C 19.914062 -2.648438 19.242188 -1.988281 18.359375 -1.4375 C 17.484375 -0.882812 16.410156 -0.460938 15.140625 -0.171875 C 13.867188 0.117188 12.421875 0.265625 10.796875 0.265625 C 7.367188 0.265625 4.632812 -0.320312 2.59375 -1.5 C 2.175781 -1.707031 1.929688 -1.8125 1.859375 -1.8125 C 1.753906 -1.8125 1.675781 -1.785156 1.625 -1.734375 C 1.570312 -1.679688 1.519531 -1.632812 1.46875 -1.59375 L 1.125 -1.6875 L 3.328125 -6.21875 L 3.765625 -6 C 3.765625 -5.945312 3.753906 -5.890625 3.734375 -5.828125 C 3.710938 -5.765625 3.703125 -5.671875 3.703125 -5.546875 C 3.722656 -5.160156 3.929688 -4.800781 4.328125 -4.46875 C 4.734375 -4.132812 5.253906 -3.851562 5.890625 -3.625 C 6.535156 -3.394531 7.265625 -3.210938 8.078125 -3.078125 C 8.898438 -2.941406 9.738281 -2.875 10.59375 -2.875 C 12.6875 -2.875 14.285156 -3.128906 15.390625 -3.640625 C 16.503906 -4.148438 17.0625 -4.847656 17.0625 -5.734375 C 17.0625 -6.316406 16.878906 -6.769531 16.515625 -7.09375 C 16.148438 -7.414062 15.648438 -7.648438 15.015625 -7.796875 C 14.378906 -7.953125 13.609375 -8.046875 12.703125 -8.078125 C 11.804688 -8.117188 10.828125 -8.144531 9.765625 -8.15625 C 8.484375 -8.175781 7.332031 -8.269531 6.3125 -8.4375 C 5.300781 -8.601562 4.441406 -8.882812 3.734375 -9.28125 C 3.035156 -9.675781 2.5 -10.203125 2.125 -10.859375 C 1.757812 -11.515625 1.578125 -12.34375 1.578125 -13.34375 C 1.578125 -14.382812 1.820312 -15.300781 2.3125 -16.09375 C 2.8125 -16.882812 3.5 -17.546875 4.375 -18.078125 C 5.257812 -18.617188 6.3125 -19.019531 7.53125 -19.28125 C 8.75 -19.550781 10.070312 -19.6875 11.5 -19.6875 Z M 11.5 -19.6875 "/></g></g></g><g fill="#000000" fill-opacity="1"><g transform="translate(80.604819, 51.371303)"><g><path d="M 11.4375 -16.53125 C 12.863281 -16.53125 14.070312 -16.382812 15.0625 -16.09375 C 16.0625 -15.800781 16.8125 -15.550781 17.3125 -15.34375 C 17.613281 -15.195312 17.863281 -15.066406 18.0625 -14.953125 C 18.269531 -14.847656 18.421875 -14.796875 18.515625 -14.796875 C 18.546875 -14.796875 18.625 -14.832031 18.75 -14.90625 L 19.234375 -14.71875 L 17.28125 -11.15625 L 16.796875 -11.390625 C 16.816406 -11.421875 16.835938 -11.460938 16.859375 -11.515625 C 16.890625 -11.578125 16.90625 -11.648438 16.90625 -11.734375 C 16.90625 -11.859375 16.765625 -12.046875 16.484375 -12.296875 C 16.203125 -12.546875 15.804688 -12.789062 15.296875 -13.03125 C 14.785156 -13.269531 14.175781 -13.476562 13.46875 -13.65625 C 12.769531 -13.832031 12 -13.921875 11.15625 -13.921875 C 10.132812 -13.921875 9.207031 -13.773438 8.375 -13.484375 C 7.539062 -13.203125 6.820312 -12.804688 6.21875 -12.296875 C 5.613281 -11.796875 5.144531 -11.191406 4.8125 -10.484375 C 4.488281 -9.785156 4.328125 -9.019531 4.328125 -8.1875 C 4.328125 -7.132812 4.507812 -6.234375 4.875 -5.484375 C 5.238281 -4.742188 5.722656 -4.140625 6.328125 -3.671875 C 6.941406 -3.210938 7.644531 -2.875 8.4375 -2.65625 C 9.226562 -2.445312 10.050781 -2.34375 10.90625 -2.34375 C 11.78125 -2.34375 12.609375 -2.441406 13.390625 -2.640625 C 14.171875 -2.847656 14.851562 -3.085938 15.4375 -3.359375 C 16.03125 -3.640625 16.5 -3.9375 16.84375 -4.25 C 17.1875 -4.5625 17.359375 -4.828125 17.359375 -5.046875 C 17.359375 -5.097656 17.34375 -5.210938 17.3125 -5.390625 L 17.734375 -5.59375 L 19.875 -2.5 L 19.421875 -2.296875 C 19.378906 -2.316406 19.332031 -2.332031 19.28125 -2.34375 C 19.226562 -2.363281 19.164062 -2.375 19.09375 -2.375 C 19.007812 -2.375 18.910156 -2.332031 18.796875 -2.25 C 18.691406 -2.175781 18.554688 -2.070312 18.390625 -1.9375 C 18.234375 -1.800781 18.03125 -1.644531 17.78125 -1.46875 C 17.539062 -1.289062 17.242188 -1.113281 16.890625 -0.9375 C 16.265625 -0.613281 15.429688 -0.332031 14.390625 -0.09375 C 13.347656 0.144531 12.097656 0.265625 10.640625 0.265625 C 9.378906 0.265625 8.171875 0.0859375 7.015625 -0.265625 C 5.859375 -0.617188 4.835938 -1.140625 3.953125 -1.828125 C 3.078125 -2.523438 2.375 -3.390625 1.84375 -4.421875 C 1.320312 -5.453125 1.0625 -6.644531 1.0625 -8 C 1.0625 -9.207031 1.3125 -10.332031 1.8125 -11.375 C 2.3125 -12.414062 3.019531 -13.316406 3.9375 -14.078125 C 4.851562 -14.847656 5.945312 -15.445312 7.21875 -15.875 C 8.488281 -16.3125 9.894531 -16.53125 11.4375 -16.53125 Z M 11.4375 -16.53125 "/></g></g></g><g fill="#000000" fill-opacity="1"><g transform="translate(100.953228, 51.371303)"><g><path d="M 6.6875 -16.265625 L 6.6875 -15.890625 C 6.445312 -15.890625 6.285156 -15.84375 6.203125 -15.75 C 6.117188 -15.664062 6.078125 -15.5 6.078125 -15.25 L 6.078125 -9.765625 L 16.109375 -9.765625 L 16.109375 -15.25 C 16.109375 -15.5 16.070312 -15.664062 16 -15.75 C 15.925781 -15.84375 15.765625 -15.890625 15.515625 -15.890625 L 15.515625 -16.265625 L 19.984375 -16.265625 L 19.984375 -15.890625 C 19.734375 -15.890625 19.566406 -15.84375 19.484375 -15.75 C 19.398438 -15.664062 19.359375 -15.5 19.359375 -15.25 L 19.359375 -1.015625 C 19.359375 -0.785156 19.394531 -0.617188 19.46875 -0.515625 C 19.539062 -0.421875 19.710938 -0.375 19.984375 -0.375 L 19.984375 0 L 15.515625 0 L 15.515625 -0.375 C 15.753906 -0.375 15.910156 -0.410156 15.984375 -0.484375 C 16.066406 -0.566406 16.109375 -0.734375 16.109375 -0.984375 L 16.109375 -6.9375 L 6.078125 -6.9375 L 6.078125 -1.015625 C 6.078125 -0.785156 6.113281 -0.617188 6.1875 -0.515625 C 6.257812 -0.421875 6.425781 -0.375 6.6875 -0.375 L 6.6875 0 L 2.234375 0 L 2.234375 -0.375 C 2.484375 -0.375 2.644531 -0.414062 2.71875 -0.5 C 2.789062 -0.59375 2.828125 -0.765625 2.828125 -1.015625 L 2.828125 -15.28125 C 2.828125 -15.53125 2.785156 -15.691406 2.703125 -15.765625 C 2.628906 -15.847656 2.472656 -15.890625 2.234375 -15.890625 L 2.234375 -16.265625 Z M 6.6875 -16.265625 "/></g></g></g><g fill="#000000" fill-opacity="1"><g transform="translate(122.768458, 51.371303)"><g><path d="M 11.09375 0.265625 C 9.5625 0.265625 8.179688 0.046875 6.953125 -0.390625 C 5.734375 -0.835938 4.679688 -1.441406 3.796875 -2.203125 C 2.921875 -2.972656 2.242188 -3.863281 1.765625 -4.875 C 1.296875 -5.894531 1.0625 -6.960938 1.0625 -8.078125 C 1.0625 -9.335938 1.320312 -10.488281 1.84375 -11.53125 C 2.375 -12.570312 3.085938 -13.460938 3.984375 -14.203125 C 4.878906 -14.941406 5.929688 -15.515625 7.140625 -15.921875 C 8.359375 -16.328125 9.660156 -16.53125 11.046875 -16.53125 C 12.578125 -16.53125 13.960938 -16.304688 15.203125 -15.859375 C 16.441406 -15.421875 17.5 -14.816406 18.375 -14.046875 C 19.257812 -13.285156 19.9375 -12.394531 20.40625 -11.375 C 20.882812 -10.351562 21.125 -9.273438 21.125 -8.140625 C 21.125 -6.960938 20.878906 -5.863281 20.390625 -4.84375 C 19.898438 -3.832031 19.210938 -2.945312 18.328125 -2.1875 C 17.453125 -1.425781 16.398438 -0.828125 15.171875 -0.390625 C 13.953125 0.046875 12.59375 0.265625 11.09375 0.265625 Z M 4.15625 -8.140625 C 4.15625 -7.285156 4.320312 -6.5 4.65625 -5.78125 C 5 -5.070312 5.476562 -4.460938 6.09375 -3.953125 C 6.707031 -3.453125 7.4375 -3.054688 8.28125 -2.765625 C 9.125 -2.484375 10.0625 -2.34375 11.09375 -2.34375 C 12.125 -2.34375 13.0625 -2.484375 13.90625 -2.765625 C 14.75 -3.054688 15.476562 -3.453125 16.09375 -3.953125 C 16.707031 -4.460938 17.179688 -5.070312 17.515625 -5.78125 C 17.859375 -6.5 18.03125 -7.285156 18.03125 -8.140625 C 18.03125 -8.992188 17.863281 -9.773438 17.53125 -10.484375 C 17.207031 -11.191406 16.738281 -11.796875 16.125 -12.296875 C 15.507812 -12.804688 14.773438 -13.203125 13.921875 -13.484375 C 13.066406 -13.773438 12.113281 -13.921875 11.0625 -13.921875 C 10.101562 -13.921875 9.207031 -13.789062 8.375 -13.53125 C 7.539062 -13.28125 6.8125 -12.90625 6.1875 -12.40625 C 5.5625 -11.90625 5.066406 -11.296875 4.703125 -10.578125 C 4.335938 -9.859375 4.15625 -9.046875 4.15625 -8.140625 Z M 4.15625 -8.140625 "/></g></g></g><g fill="#000000" fill-opacity="1"><g transform="translate(144.583685, 51.371303)"><g><path d="M 11.09375 0.265625 C 9.5625 0.265625 8.179688 0.046875 6.953125 -0.390625 C 5.734375 -0.835938 4.679688 -1.441406 3.796875 -2.203125 C 2.921875 -2.972656 2.242188 -3.863281 1.765625 -4.875 C 1.296875 -5.894531 1.0625 -6.960938 1.0625 -8.078125 C 1.0625 -9.335938 1.320312 -10.488281 1.84375 -11.53125 C 2.375 -12.570312 3.085938 -13.460938 3.984375 -14.203125 C 4.878906 -14.941406 5.929688 -15.515625 7.140625 -15.921875 C 8.359375 -16.328125 9.660156 -16.53125 11.046875 -16.53125 C 12.578125 -16.53125 13.960938 -16.304688 15.203125 -15.859375 C 16.441406 -15.421875 17.5 -14.816406 18.375 -14.046875 C 19.257812 -13.285156 19.9375 -12.394531 20.40625 -11.375 C 20.882812 -10.351562 21.125 -9.273438 21.125 -8.140625 C 21.125 -6.960938 20.878906 -5.863281 20.390625 -4.84375 C 19.898438 -3.832031 19.210938 -2.945312 18.328125 -2.1875 C 17.453125 -1.425781 16.398438 -0.828125 15.171875 -0.390625 C 13.953125 0.046875 12.59375 0.265625 11.09375 0.265625 Z M 4.15625 -8.140625 C 4.15625 -7.285156 4.320312 -6.5 4.65625 -5.78125 C 5 -5.070312 5.476562 -4.460938 6.09375 -3.953125 C 6.707031 -3.453125 7.4375 -3.054688 8.28125 -2.765625 C 9.125 -2.484375 10.0625 -2.34375 11.09375 -2.34375 C 12.125 -2.34375 13.0625 -2.484375 13.90625 -2.765625 C 14.75 -3.054688 15.476562 -3.453125 16.09375 -3.953125 C 16.707031 -4.460938 17.179688 -5.070312 17.515625 -5.78125 C 17.859375 -6.5 18.03125 -7.285156 18.03125 -8.140625 C 18.03125 -8.992188 17.863281 -9.773438 17.53125 -10.484375 C 17.207031 -11.191406 16.738281 -11.796875 16.125 -12.296875 C 15.507812 -12.804688 14.773438 -13.203125 13.921875 -13.484375 C 13.066406 -13.773438 12.113281 -13.921875 11.0625 -13.921875 C 10.101562 -13.921875 9.207031 -13.789062 8.375 -13.53125 C 7.539062 -13.28125 6.8125 -12.90625 6.1875 -12.40625 C 5.5625 -11.90625 5.066406 -11.296875 4.703125 -10.578125 C 4.335938 -9.859375 4.15625 -9.046875 4.15625 -8.140625 Z M 4.15625 -8.140625 "/></g></g></g><g fill="#000000" fill-opacity="1"><g transform="translate(166.398918, 51.371303)"><g><path d="M 6.40625 -16.265625 L 6.40625 -15.890625 C 6.15625 -15.890625 5.992188 -15.84375 5.921875 -15.75 C 5.847656 -15.664062 5.8125 -15.5 5.8125 -15.25 L 5.8125 -2.609375 L 16.109375 -2.609375 C 16.609375 -2.609375 16.859375 -2.796875 16.859375 -3.171875 L 17.234375 -3.171875 L 17.234375 0.375 L 16.859375 0.375 C 16.859375 0.125 16.609375 0 16.109375 0 L 1.96875 0 L 1.96875 -0.375 C 2.21875 -0.375 2.378906 -0.421875 2.453125 -0.515625 C 2.523438 -0.617188 2.5625 -0.796875 2.5625 -1.046875 L 2.5625 -15.25 C 2.5625 -15.488281 2.523438 -15.65625 2.453125 -15.75 C 2.378906 -15.84375 2.21875 -15.890625 1.96875 -15.890625 L 1.96875 -16.265625 Z M 6.40625 -16.265625 "/></g></g></g><g clip-path="url(#83d4d5ff91)"><g clip-path="url(#7cc7190d8e)"><path fill="#ef9505" d="M 2.167969 0.015625 L 53.007812 0.015625 L 53.007812 50.855469 L 2.167969 50.855469 Z M 2.167969 0.015625 " fill-opacity="1" fill-rule="nonzero"/></g></g><path fill="#9e389e" d="M 51.554688 22.679688 C 51.550781 22.578125 51.535156 22.480469 51.511719 22.378906 C 51.507812 22.347656 51.5 22.3125 51.492188 22.28125 C 51.421875 22.023438 51.292969 21.804688 51.105469 21.613281 C 51.078125 21.589844 51.050781 21.566406 51.023438 21.542969 C 50.953125 21.476562 50.875 21.414062 50.789062 21.363281 C 50.769531 21.351562 50.757812 21.332031 50.738281 21.320312 L 34.171875 11.816406 C 33.917969 11.671875 33.644531 11.597656 33.347656 11.597656 C 33.054688 11.597656 32.78125 11.671875 32.523438 11.816406 L 15.960938 21.320312 C 15.941406 21.332031 15.925781 21.347656 15.910156 21.359375 C 15.824219 21.414062 15.746094 21.476562 15.671875 21.542969 C 15.644531 21.566406 15.617188 21.589844 15.59375 21.613281 C 15.40625 21.800781 15.277344 22.023438 15.207031 22.28125 C 15.195312 22.3125 15.191406 22.347656 15.183594 22.378906 C 15.160156 22.480469 15.148438 22.578125 15.144531 22.679688 C 15.144531 22.699219 15.136719 22.71875 15.136719 22.742188 L 15.136719 41.753906 C 15.136719 42.046875 15.210938 42.320312 15.355469 42.574219 C 15.503906 42.828125 15.703125 43.027344 15.960938 43.171875 L 32.523438 52.679688 C 32.542969 52.691406 32.566406 52.695312 32.585938 52.707031 C 32.675781 52.75 32.765625 52.789062 32.859375 52.816406 C 32.894531 52.828125 32.925781 52.839844 32.960938 52.847656 C 33.21875 52.917969 33.476562 52.917969 33.734375 52.847656 C 33.769531 52.839844 33.804688 52.828125 33.839844 52.816406 C 33.933594 52.789062 34.023438 52.75 34.109375 52.707031 C 34.132812 52.695312 34.152344 52.691406 34.171875 52.679688 L 50.738281 43.171875 C 50.992188 43.027344 51.195312 42.828125 51.339844 42.574219 C 51.488281 42.320312 51.5625 42.046875 51.5625 41.753906 L 51.5625 22.742188 C 51.5625 22.71875 51.554688 22.699219 51.554688 22.679688 Z M 33.347656 15.132812 L 46.613281 22.742188 L 33.347656 30.355469 L 20.085938 22.742188 Z M 18.433594 25.582031 L 31.699219 33.195312 L 31.699219 48.417969 L 18.433594 40.804688 Z M 48.261719 40.804688 L 35 48.417969 L 35 33.195312 L 48.261719 25.582031 Z M 48.261719 40.804688 " fill-opacity="1" fill-rule="nonzero"/><g clip-path="url(#27e5164681)"><path fill="#efc200" d="M 39.644531 47.648438 L 33.347656 51.257812 L 33.351562 58.484375 L 39.644531 54.871094 Z M 39.644531 47.648438 " fill-opacity="1" fill-rule="nonzero"/></g><g clip-path="url(#e856c020f8)"><path fill="#ffc719" d="M 27.054688 47.648438 L 27.054688 54.871094 L 33.347656 58.484375 L 33.347656 51.257812 Z M 27.054688 47.648438 " fill-opacity="1" fill-rule="nonzero"/></g><path fill="#ffda71" d="M 33.351562 44.035156 L 27.054688 47.648438 L 33.347656 51.257812 L 39.644531 47.648438 Z M 33.351562 44.035156 " fill-opacity="1" fill-rule="nonzero"/><g clip-path="url(#9939982caf)"><path fill="#efc200" d="M 56.207031 38.140625 L 49.910156 41.753906 L 49.914062 48.976562 L 56.207031 45.367188 Z M 56.207031 38.140625 " fill-opacity="1" fill-rule="nonzero"/></g><path fill="#ffc719" d="M 43.617188 38.140625 L 43.617188 45.367188 L 49.910156 48.976562 L 49.910156 41.753906 Z M 43.617188 38.140625 " fill-opacity="1" fill-rule="nonzero"/><g clip-path="url(#0779f9f045)"><path fill="#ffda71" d="M 49.914062 34.527344 L 43.617188 38.140625 L 49.910156 41.753906 L 56.207031 38.140625 Z M 49.914062 34.527344 " fill-opacity="1" fill-rule="nonzero"/></g><path fill="#efc200" d="M 23.078125 38.140625 L 16.785156 41.753906 L 16.785156 48.976562 L 23.078125 45.367188 Z M 23.078125 38.140625 " fill-opacity="1" fill-rule="nonzero"/><g clip-path="url(#6db6307351)"><path fill="#ffc719" d="M 10.488281 38.140625 L 10.488281 45.363281 L 16.785156 48.976562 L 16.785156 41.753906 Z M 10.488281 38.140625 " fill-opacity="1" fill-rule="nonzero"/></g><g clip-path="url(#f166d16bd5)"><path fill="#ffda71" d="M 16.785156 34.527344 L 10.492188 38.140625 L 16.785156 41.753906 L 23.078125 38.140625 Z M 16.785156 34.527344 " fill-opacity="1" fill-rule="nonzero"/></g><path fill="#efc200" d="M 39.644531 28.636719 L 33.347656 32.25 L 33.351562 39.472656 L 39.644531 35.863281 Z M 39.644531 28.636719 " fill-opacity="1" fill-rule="nonzero"/><path fill="#ffc719" d="M 27.054688 28.636719 L 27.054688 35.859375 L 33.347656 39.472656 L 33.347656 32.25 Z M 27.054688 28.636719 " fill-opacity="1" fill-rule="nonzero"/><path fill="#ffda71" d="M 33.351562 25.023438 L 27.054688 28.636719 L 33.347656 32.25 L 39.644531 28.636719 Z M 33.351562 25.023438 " fill-opacity="1" fill-rule="nonzero"/><g clip-path="url(#01f4e89251)"><path fill="#efc200" d="M 56.207031 19.128906 L 49.910156 22.742188 L 49.914062 29.96875 L 56.207031 26.355469 Z M 56.207031 19.128906 " fill-opacity="1" fill-rule="nonzero"/></g><path fill="#ffc719" d="M 43.617188 19.128906 L 43.617188 26.355469 L 49.910156 29.964844 L 49.910156 22.742188 Z M 43.617188 19.128906 " fill-opacity="1" fill-rule="nonzero"/><g clip-path="url(#501aef3819)"><path fill="#ffda71" d="M 49.914062 15.515625 L 43.617188 19.128906 L 49.910156 22.742188 L 56.207031 19.128906 Z M 49.914062 15.515625 " fill-opacity="1" fill-rule="nonzero"/></g><path fill="#efc200" d="M 23.078125 19.128906 L 16.785156 22.742188 L 16.785156 29.96875 L 23.078125 26.355469 Z M 23.078125 19.128906 " fill-opacity="1" fill-rule="nonzero"/><g clip-path="url(#f4dc0b5738)"><path fill="#ffc719" d="M 10.488281 19.128906 L 10.488281 26.355469 L 16.785156 29.964844 L 16.785156 22.742188 Z M 10.488281 19.128906 " fill-opacity="1" fill-rule="nonzero"/></g><g clip-path="url(#e7d1763d12)"><path fill="#ffda71" d="M 16.785156 15.515625 L 10.492188 19.128906 L 16.785156 22.742188 L 23.078125 19.128906 Z M 16.785156 15.515625 " fill-opacity="1" fill-rule="nonzero"/></g><path fill="#efc200" d="M 39.644531 9.625 L 33.347656 13.238281 L 33.351562 20.464844 L 39.644531 16.851562 Z M 39.644531 9.625 " fill-opacity="1" fill-rule="nonzero"/><path fill="#ffc719" d="M 27.054688 9.625 L 27.054688 16.851562 L 33.347656 20.460938 L 33.347656 13.238281 Z M 27.054688 9.625 " fill-opacity="1" fill-rule="nonzero"/><g clip-path="url(#85a352f198)"><path fill="#ffda71" d="M 33.351562 6.011719 L 27.054688 9.625 L 33.347656 13.238281 L 39.644531 9.625 Z M 33.351562 6.011719 " fill-opacity="1" fill-rule="nonzero"/></g></svg>