<svg xmlns="http://www.w3.org/2000/svg" xmlns:xlink="http://www.w3.org/1999/xlink" width="300" zoomAndPan="magnify" viewBox="0 0 224.87999 60" height="80" preserveAspectRatio="xMidYMid meet" version="1.0"><defs><g/></defs><g fill="#000000" fill-opacity="1"><g transform="translate(3.88074, 32.195034)"><g><path d="M 33.203125 -20.359375 L 26.53125 0 L 21.46875 0 L 16.984375 -13.796875 L 12.359375 0 L 7.328125 0 L 0.640625 -20.359375 L 5.53125 -20.359375 L 10.125 -6.046875 L 14.921875 -20.359375 L 19.296875 -20.359375 L 23.9375 -5.9375 L 28.6875 -20.359375 Z M 33.203125 -20.359375 "/></g></g></g><g fill="#000000" fill-opacity="1"><g transform="translate(37.711462, 32.195034)"><g><path d="M 18.1875 -3.78125 L 18.1875 0 L 2.421875 0 L 2.421875 -20.359375 L 17.8125 -20.359375 L 17.8125 -16.578125 L 7.09375 -16.578125 L 7.09375 -12.15625 L 16.546875 -12.15625 L 16.546875 -8.5 L 7.09375 -8.5 L 7.09375 -3.78125 Z M 18.1875 -3.78125 "/></g></g></g><g fill="#000000" fill-opacity="1"><g transform="translate(57.23031, 32.195034)"><g><path d="M 17.375 -10.59375 C 18.53125 -10.21875 19.4375 -9.597656 20.09375 -8.734375 C 20.757812 -7.878906 21.09375 -6.820312 21.09375 -5.5625 C 21.09375 -3.769531 20.398438 -2.394531 19.015625 -1.4375 C 17.628906 -0.476562 15.609375 0 12.953125 0 L 2.421875 0 L 2.421875 -20.359375 L 12.359375 -20.359375 C 14.847656 -20.359375 16.753906 -19.882812 18.078125 -18.9375 C 19.410156 -17.988281 20.078125 -16.703125 20.078125 -15.078125 C 20.078125 -14.085938 19.835938 -13.203125 19.359375 -12.421875 C 18.890625 -11.648438 18.226562 -11.039062 17.375 -10.59375 Z M 7.09375 -16.8125 L 7.09375 -12.015625 L 11.78125 -12.015625 C 12.945312 -12.015625 13.828125 -12.21875 14.421875 -12.625 C 15.023438 -13.03125 15.328125 -13.632812 15.328125 -14.4375 C 15.328125 -15.226562 15.023438 -15.820312 14.421875 -16.21875 C 13.828125 -16.613281 12.945312 -16.8125 11.78125 -16.8125 Z M 12.59375 -3.546875 C 13.832031 -3.546875 14.765625 -3.75 15.390625 -4.15625 C 16.023438 -4.5625 16.34375 -5.191406 16.34375 -6.046875 C 16.34375 -7.734375 15.09375 -8.578125 12.59375 -8.578125 L 7.09375 -8.578125 L 7.09375 -3.546875 Z M 12.59375 -3.546875 "/></g></g></g><g fill="#000000" fill-opacity="1"><g transform="translate(79.483535, 32.195034)"><g><path d="M 10.640625 -12.078125 C 12.429688 -11.785156 13.800781 -11.117188 14.75 -10.078125 C 15.695312 -9.046875 16.171875 -7.757812 16.171875 -6.21875 C 16.171875 -5.039062 15.859375 -3.953125 15.234375 -2.953125 C 14.617188 -1.953125 13.675781 -1.148438 12.40625 -0.546875 C 11.132812 0.046875 9.578125 0.34375 7.734375 0.34375 C 6.304688 0.34375 4.894531 0.15625 3.5 -0.21875 C 2.113281 -0.59375 0.9375 -1.128906 -0.03125 -1.828125 L 1.796875 -5.4375 C 2.578125 -4.851562 3.472656 -4.398438 4.484375 -4.078125 C 5.503906 -3.765625 6.550781 -3.609375 7.625 -3.609375 C 8.800781 -3.609375 9.726562 -3.832031 10.40625 -4.28125 C 11.09375 -4.738281 11.4375 -5.382812 11.4375 -6.21875 C 11.4375 -7.894531 10.164062 -8.734375 7.625 -8.734375 L 5.46875 -8.734375 L 5.46875 -11.84375 L 9.65625 -16.578125 L 0.984375 -16.578125 L 0.984375 -20.359375 L 15.25 -20.359375 L 15.25 -17.3125 Z M 10.640625 -12.078125 "/></g></g></g><g fill="#ffc300" fill-opacity="1"><g transform="translate(96.867578, 30.89638)"><g><path d="M 8.90625 0.390625 C 7.300781 0.390625 5.75 0.195312 4.25 -0.1875 C 2.75 -0.582031 1.53125 -1.113281 0.59375 -1.78125 L 2.421875 -5.890625 C 3.304688 -5.304688 4.328125 -4.832031 5.484375 -4.46875 C 6.648438 -4.113281 7.800781 -3.9375 8.9375 -3.9375 C 11.070312 -3.9375 12.140625 -4.472656 12.140625 -5.546875 C 12.140625 -6.109375 11.832031 -6.523438 11.21875 -6.796875 C 10.613281 -7.078125 9.632812 -7.363281 8.28125 -7.65625 C 6.800781 -7.976562 5.5625 -8.320312 4.5625 -8.6875 C 3.570312 -9.050781 2.71875 -9.632812 2 -10.4375 C 1.28125 -11.25 0.921875 -12.34375 0.921875 -13.71875 C 0.921875 -14.914062 1.25 -16 1.90625 -16.96875 C 2.570312 -17.9375 3.554688 -18.703125 4.859375 -19.265625 C 6.160156 -19.828125 7.757812 -20.109375 9.65625 -20.109375 C 10.957031 -20.109375 12.234375 -19.960938 13.484375 -19.671875 C 14.742188 -19.378906 15.851562 -18.953125 16.8125 -18.390625 L 15.09375 -14.25 C 13.21875 -15.269531 11.398438 -15.78125 9.640625 -15.78125 C 8.523438 -15.78125 7.710938 -15.613281 7.203125 -15.28125 C 6.703125 -14.957031 6.453125 -14.53125 6.453125 -14 C 6.453125 -13.476562 6.75 -13.082031 7.34375 -12.8125 C 7.945312 -12.550781 8.914062 -12.28125 10.25 -12 C 11.757812 -11.675781 13.003906 -11.332031 13.984375 -10.96875 C 14.972656 -10.601562 15.828125 -10.019531 16.546875 -9.21875 C 17.273438 -8.425781 17.640625 -7.34375 17.640625 -5.96875 C 17.640625 -4.789062 17.304688 -3.722656 16.640625 -2.765625 C 15.984375 -1.804688 15 -1.039062 13.6875 -0.46875 C 12.375 0.101562 10.78125 0.390625 8.90625 0.390625 Z M 8.90625 0.390625 "/></g></g></g><g fill="#ffc300" fill-opacity="1"><g transform="translate(115.090521, 30.89638)"><g><path d="M 11.796875 0.390625 C 9.734375 0.390625 7.878906 -0.0390625 6.234375 -0.90625 C 4.597656 -1.78125 3.304688 -3 2.359375 -4.5625 C 1.421875 -6.125 0.953125 -7.890625 0.953125 -9.859375 C 0.953125 -11.828125 1.421875 -13.59375 2.359375 -15.15625 C 3.304688 -16.71875 4.597656 -17.929688 6.234375 -18.796875 C 7.878906 -19.671875 9.734375 -20.109375 11.796875 -20.109375 C 13.609375 -20.109375 15.234375 -19.789062 16.671875 -19.15625 C 18.117188 -18.519531 19.320312 -17.597656 20.28125 -16.390625 L 16.734375 -13.1875 C 15.453125 -14.726562 13.898438 -15.5 12.078125 -15.5 C 11.015625 -15.5 10.0625 -15.257812 9.21875 -14.78125 C 8.382812 -14.3125 7.738281 -13.648438 7.28125 -12.796875 C 6.820312 -11.941406 6.59375 -10.960938 6.59375 -9.859375 C 6.59375 -8.753906 6.820312 -7.773438 7.28125 -6.921875 C 7.738281 -6.066406 8.382812 -5.398438 9.21875 -4.921875 C 10.0625 -4.453125 11.015625 -4.21875 12.078125 -4.21875 C 13.898438 -4.21875 15.453125 -4.988281 16.734375 -6.53125 L 20.28125 -3.328125 C 19.320312 -2.117188 18.117188 -1.195312 16.671875 -0.5625 C 15.234375 0.0703125 13.609375 0.390625 11.796875 0.390625 Z M 11.796875 0.390625 "/></g></g></g><g fill="#ffc300" fill-opacity="1"><g transform="translate(135.876505, 30.89638)"><g><path d="M 20.734375 -19.71875 L 20.734375 0 L 15.15625 0 L 15.15625 -7.6875 L 7.546875 -7.6875 L 7.546875 0 L 1.96875 0 L 1.96875 -19.71875 L 7.546875 -19.71875 L 7.546875 -12.3125 L 15.15625 -12.3125 L 15.15625 -19.71875 Z M 20.734375 -19.71875 "/></g></g></g><g fill="#ffc300" fill-opacity="1"><g transform="translate(158.577732, 30.89638)"><g><path d="M 11.921875 0.390625 C 9.835938 0.390625 7.960938 -0.046875 6.296875 -0.921875 C 4.628906 -1.804688 3.320312 -3.03125 2.375 -4.59375 C 1.425781 -6.15625 0.953125 -7.910156 0.953125 -9.859375 C 0.953125 -11.816406 1.425781 -13.570312 2.375 -15.125 C 3.320312 -16.6875 4.628906 -17.90625 6.296875 -18.78125 C 7.960938 -19.664062 9.835938 -20.109375 11.921875 -20.109375 C 14.003906 -20.109375 15.875 -19.664062 17.53125 -18.78125 C 19.195312 -17.90625 20.503906 -16.6875 21.453125 -15.125 C 22.398438 -13.570312 22.875 -11.816406 22.875 -9.859375 C 22.875 -7.910156 22.398438 -6.15625 21.453125 -4.59375 C 20.503906 -3.03125 19.195312 -1.804688 17.53125 -0.921875 C 15.875 -0.046875 14.003906 0.390625 11.921875 0.390625 Z M 11.921875 -4.21875 C 12.910156 -4.21875 13.804688 -4.453125 14.609375 -4.921875 C 15.421875 -5.398438 16.0625 -6.066406 16.53125 -6.921875 C 17 -7.773438 17.234375 -8.753906 17.234375 -9.859375 C 17.234375 -10.960938 17 -11.941406 16.53125 -12.796875 C 16.0625 -13.648438 15.421875 -14.3125 14.609375 -14.78125 C 13.804688 -15.257812 12.910156 -15.5 11.921875 -15.5 C 10.921875 -15.5 10.015625 -15.257812 9.203125 -14.78125 C 8.398438 -14.3125 7.765625 -13.648438 7.296875 -12.796875 C 6.828125 -11.941406 6.59375 -10.960938 6.59375 -9.859375 C 6.59375 -8.753906 6.828125 -7.773438 7.296875 -6.921875 C 7.765625 -6.066406 8.398438 -5.398438 9.203125 -4.921875 C 10.015625 -4.453125 10.921875 -4.21875 11.921875 -4.21875 Z M 11.921875 -4.21875 "/></g></g></g><g fill="#ffc300" fill-opacity="1"><g transform="translate(182.405576, 30.89638)"><g><path d="M 11.921875 0.390625 C 9.835938 0.390625 7.960938 -0.046875 6.296875 -0.921875 C 4.628906 -1.804688 3.320312 -3.03125 2.375 -4.59375 C 1.425781 -6.15625 0.953125 -7.910156 0.953125 -9.859375 C 0.953125 -11.816406 1.425781 -13.570312 2.375 -15.125 C 3.320312 -16.6875 4.628906 -17.90625 6.296875 -18.78125 C 7.960938 -19.664062 9.835938 -20.109375 11.921875 -20.109375 C 14.003906 -20.109375 15.875 -19.664062 17.53125 -18.78125 C 19.195312 -17.90625 20.503906 -16.6875 21.453125 -15.125 C 22.398438 -13.570312 22.875 -11.816406 22.875 -9.859375 C 22.875 -7.910156 22.398438 -6.15625 21.453125 -4.59375 C 20.503906 -3.03125 19.195312 -1.804688 17.53125 -0.921875 C 15.875 -0.046875 14.003906 0.390625 11.921875 0.390625 Z M 11.921875 -4.21875 C 12.910156 -4.21875 13.804688 -4.453125 14.609375 -4.921875 C 15.421875 -5.398438 16.0625 -6.066406 16.53125 -6.921875 C 17 -7.773438 17.234375 -8.753906 17.234375 -9.859375 C 17.234375 -10.960938 17 -11.941406 16.53125 -12.796875 C 16.0625 -13.648438 15.421875 -14.3125 14.609375 -14.78125 C 13.804688 -15.257812 12.910156 -15.5 11.921875 -15.5 C 10.921875 -15.5 10.015625 -15.257812 9.203125 -14.78125 C 8.398438 -14.3125 7.765625 -13.648438 7.296875 -12.796875 C 6.828125 -11.941406 6.59375 -10.960938 6.59375 -9.859375 C 6.59375 -8.753906 6.828125 -7.773438 7.296875 -6.921875 C 7.765625 -6.066406 8.398438 -5.398438 9.203125 -4.921875 C 10.015625 -4.453125 10.921875 -4.21875 11.921875 -4.21875 Z M 11.921875 -4.21875 "/></g></g></g><g fill="#ffc300" fill-opacity="1"><g transform="translate(206.23342, 30.89638)"><g><path d="M 1.96875 -19.71875 L 7.546875 -19.71875 L 7.546875 -4.421875 L 16.953125 -4.421875 L 16.953125 0 L 1.96875 0 Z M 1.96875 -19.71875 "/></g></g></g><g fill="#000000" fill-opacity="1"><g transform="translate(10.402992, 50.332595)"><g><path d="M 1.390625 -8.5 L 2.28125 -8.5 L 2.28125 -0.78125 L 7.046875 -0.78125 L 7.046875 0 L 1.390625 0 Z M 1.390625 -8.5 "/></g></g></g><g fill="#000000" fill-opacity="1"><g transform="translate(17.554816, 50.332595)"><g><path d="M 6.765625 -2.921875 L 1.421875 -2.921875 C 1.472656 -2.265625 1.726562 -1.726562 2.1875 -1.3125 C 2.644531 -0.90625 3.226562 -0.703125 3.9375 -0.703125 C 4.332031 -0.703125 4.695312 -0.769531 5.03125 -0.90625 C 5.363281 -1.050781 5.648438 -1.265625 5.890625 -1.546875 L 6.375 -0.984375 C 6.09375 -0.640625 5.738281 -0.378906 5.3125 -0.203125 C 4.882812 -0.0234375 4.414062 0.0625 3.90625 0.0625 C 3.25 0.0625 2.664062 -0.078125 2.15625 -0.359375 C 1.65625 -0.640625 1.265625 -1.023438 0.984375 -1.515625 C 0.703125 -2.015625 0.5625 -2.570312 0.5625 -3.1875 C 0.5625 -3.8125 0.695312 -4.367188 0.96875 -4.859375 C 1.238281 -5.359375 1.609375 -5.742188 2.078125 -6.015625 C 2.554688 -6.296875 3.085938 -6.4375 3.671875 -6.4375 C 4.265625 -6.4375 4.796875 -6.296875 5.265625 -6.015625 C 5.734375 -5.742188 6.101562 -5.363281 6.375 -4.875 C 6.644531 -4.382812 6.78125 -3.820312 6.78125 -3.1875 Z M 3.671875 -5.6875 C 3.054688 -5.6875 2.539062 -5.488281 2.125 -5.09375 C 1.707031 -4.707031 1.472656 -4.195312 1.421875 -3.5625 L 5.953125 -3.5625 C 5.890625 -4.195312 5.648438 -4.707031 5.234375 -5.09375 C 4.816406 -5.488281 4.296875 -5.6875 3.671875 -5.6875 Z M 3.671875 -5.6875 "/></g></g></g><g fill="#000000" fill-opacity="1"><g transform="translate(24.888772, 50.332595)"><g><path d="M 3.4375 -6.4375 C 4.269531 -6.4375 4.90625 -6.226562 5.34375 -5.8125 C 5.789062 -5.394531 6.015625 -4.773438 6.015625 -3.953125 L 6.015625 0 L 5.203125 0 L 5.203125 -1 C 5.003906 -0.664062 4.71875 -0.40625 4.34375 -0.21875 C 3.96875 -0.03125 3.519531 0.0625 3 0.0625 C 2.289062 0.0625 1.722656 -0.101562 1.296875 -0.4375 C 0.878906 -0.78125 0.671875 -1.234375 0.671875 -1.796875 C 0.671875 -2.335938 0.863281 -2.773438 1.25 -3.109375 C 1.644531 -3.441406 2.269531 -3.609375 3.125 -3.609375 L 5.15625 -3.609375 L 5.15625 -4 C 5.15625 -4.539062 5 -4.957031 4.6875 -5.25 C 4.382812 -5.539062 3.9375 -5.6875 3.34375 -5.6875 C 2.945312 -5.6875 2.5625 -5.617188 2.1875 -5.484375 C 1.8125 -5.347656 1.488281 -5.160156 1.21875 -4.921875 L 0.84375 -5.578125 C 1.164062 -5.847656 1.550781 -6.054688 2 -6.203125 C 2.457031 -6.359375 2.9375 -6.4375 3.4375 -6.4375 Z M 3.125 -0.625 C 3.613281 -0.625 4.03125 -0.734375 4.375 -0.953125 C 4.726562 -1.171875 4.988281 -1.492188 5.15625 -1.921875 L 5.15625 -2.96875 L 3.15625 -2.96875 C 2.0625 -2.96875 1.515625 -2.585938 1.515625 -1.828125 C 1.515625 -1.453125 1.65625 -1.15625 1.9375 -0.9375 C 2.226562 -0.726562 2.625 -0.625 3.125 -0.625 Z M 3.125 -0.625 "/></g></g></g><g fill="#000000" fill-opacity="1"><g transform="translate(32.052729, 50.332595)"><g><path d="M 2.03125 -5.140625 C 2.226562 -5.566406 2.523438 -5.890625 2.921875 -6.109375 C 3.328125 -6.328125 3.828125 -6.4375 4.421875 -6.4375 L 4.421875 -5.59375 L 4.21875 -5.609375 C 3.539062 -5.609375 3.007812 -5.398438 2.625 -4.984375 C 2.25 -4.578125 2.0625 -4 2.0625 -3.25 L 2.0625 0 L 1.203125 0 L 1.203125 -6.390625 L 2.03125 -6.390625 Z M 2.03125 -5.140625 "/></g></g></g><g fill="#000000" fill-opacity="1"><g transform="translate(36.921796, 50.332595)"><g><path d="M 4.453125 -6.4375 C 5.253906 -6.4375 5.890625 -6.203125 6.359375 -5.734375 C 6.835938 -5.265625 7.078125 -4.585938 7.078125 -3.703125 L 7.078125 0 L 6.21875 0 L 6.21875 -3.625 C 6.21875 -4.28125 6.050781 -4.78125 5.71875 -5.125 C 5.382812 -5.476562 4.910156 -5.65625 4.296875 -5.65625 C 3.609375 -5.65625 3.0625 -5.453125 2.65625 -5.046875 C 2.257812 -4.640625 2.0625 -4.070312 2.0625 -3.34375 L 2.0625 0 L 1.203125 0 L 1.203125 -6.390625 L 2.03125 -6.390625 L 2.03125 -5.203125 C 2.257812 -5.597656 2.582031 -5.898438 3 -6.109375 C 3.414062 -6.328125 3.898438 -6.4375 4.453125 -6.4375 Z M 4.453125 -6.4375 "/></g></g></g><g fill="#000000" fill-opacity="1"><g transform="translate(45.142137, 50.332595)"><g/></g></g><g fill="#000000" fill-opacity="1"><g transform="translate(48.323423, 50.332595)"><g><path d="M 1.390625 -9.015625 L 2.1875 -9.015625 L 2.1875 2.359375 L 1.390625 2.359375 Z M 1.390625 -9.015625 "/></g></g></g><g fill="#000000" fill-opacity="1"><g transform="translate(51.905407, 50.332595)"><g/></g></g><g fill="#000000" fill-opacity="1"><g transform="translate(55.086693, 50.332595)"><g><path d="M 6.734375 -4.375 C 7.296875 -4.257812 7.726562 -4.019531 8.03125 -3.65625 C 8.332031 -3.300781 8.484375 -2.835938 8.484375 -2.265625 C 8.484375 -1.535156 8.210938 -0.972656 7.671875 -0.578125 C 7.140625 -0.191406 6.347656 0 5.296875 0 L 1.390625 0 L 1.390625 -8.5 L 5.046875 -8.5 C 5.992188 -8.5 6.726562 -8.304688 7.25 -7.921875 C 7.769531 -7.546875 8.03125 -7.007812 8.03125 -6.3125 C 8.03125 -5.84375 7.914062 -5.441406 7.6875 -5.109375 C 7.457031 -4.785156 7.140625 -4.539062 6.734375 -4.375 Z M 2.28125 -7.75 L 2.28125 -4.671875 L 4.984375 -4.671875 C 5.671875 -4.671875 6.203125 -4.800781 6.578125 -5.0625 C 6.953125 -5.332031 7.140625 -5.71875 7.140625 -6.21875 C 7.140625 -6.71875 6.953125 -7.097656 6.578125 -7.359375 C 6.203125 -7.617188 5.671875 -7.75 4.984375 -7.75 Z M 5.28125 -0.734375 C 6.039062 -0.734375 6.613281 -0.863281 7 -1.125 C 7.394531 -1.382812 7.59375 -1.789062 7.59375 -2.34375 C 7.59375 -3.40625 6.820312 -3.9375 5.28125 -3.9375 L 2.28125 -3.9375 L 2.28125 -0.734375 Z M 5.28125 -0.734375 "/></g></g></g><g fill="#000000" fill-opacity="1"><g transform="translate(64.241996, 50.332595)"><g><path d="M 6.953125 -6.390625 L 6.953125 0 L 6.125 0 L 6.125 -1.171875 C 5.90625 -0.773438 5.59375 -0.46875 5.1875 -0.25 C 4.789062 -0.0390625 4.34375 0.0625 3.84375 0.0625 C 3 0.0625 2.335938 -0.164062 1.859375 -0.625 C 1.378906 -1.09375 1.140625 -1.78125 1.140625 -2.6875 L 1.140625 -6.390625 L 2 -6.390625 L 2 -2.765625 C 2 -2.097656 2.164062 -1.585938 2.5 -1.234375 C 2.832031 -0.890625 3.304688 -0.71875 3.921875 -0.71875 C 4.585938 -0.71875 5.113281 -0.921875 5.5 -1.328125 C 5.894531 -1.734375 6.09375 -2.300781 6.09375 -3.03125 L 6.09375 -6.390625 Z M 6.953125 -6.390625 "/></g></g></g><g fill="#000000" fill-opacity="1"><g transform="translate(72.413771, 50.332595)"><g><path d="M 1.203125 -6.390625 L 2.0625 -6.390625 L 2.0625 0 L 1.203125 0 Z M 1.640625 -7.78125 C 1.460938 -7.78125 1.3125 -7.835938 1.1875 -7.953125 C 1.0625 -8.078125 1 -8.226562 1 -8.40625 C 1 -8.5625 1.0625 -8.703125 1.1875 -8.828125 C 1.3125 -8.953125 1.460938 -9.015625 1.640625 -9.015625 C 1.816406 -9.015625 1.960938 -8.953125 2.078125 -8.828125 C 2.203125 -8.710938 2.265625 -8.570312 2.265625 -8.40625 C 2.265625 -8.226562 2.203125 -8.078125 2.078125 -7.953125 C 1.960938 -7.835938 1.816406 -7.78125 1.640625 -7.78125 Z M 1.640625 -7.78125 "/></g></g></g><g fill="#000000" fill-opacity="1"><g transform="translate(75.680056, 50.332595)"><g><path d="M 1.203125 -9.015625 L 2.0625 -9.015625 L 2.0625 0 L 1.203125 0 Z M 1.203125 -9.015625 "/></g></g></g><g fill="#000000" fill-opacity="1"><g transform="translate(78.946341, 50.332595)"><g><path d="M 7.03125 -9.015625 L 7.03125 0 L 6.203125 0 L 6.203125 -1.265625 C 5.941406 -0.835938 5.597656 -0.507812 5.171875 -0.28125 C 4.753906 -0.0507812 4.273438 0.0625 3.734375 0.0625 C 3.140625 0.0625 2.597656 -0.0703125 2.109375 -0.34375 C 1.628906 -0.625 1.25 -1.007812 0.96875 -1.5 C 0.695312 -2 0.5625 -2.5625 0.5625 -3.1875 C 0.5625 -3.820312 0.695312 -4.382812 0.96875 -4.875 C 1.25 -5.375 1.628906 -5.757812 2.109375 -6.03125 C 2.597656 -6.300781 3.140625 -6.4375 3.734375 -6.4375 C 4.253906 -6.4375 4.722656 -6.328125 5.140625 -6.109375 C 5.554688 -5.898438 5.898438 -5.585938 6.171875 -5.171875 L 6.171875 -9.015625 Z M 3.8125 -0.703125 C 4.257812 -0.703125 4.660156 -0.804688 5.015625 -1.015625 C 5.378906 -1.222656 5.660156 -1.515625 5.859375 -1.890625 C 6.066406 -2.273438 6.171875 -2.707031 6.171875 -3.1875 C 6.171875 -3.675781 6.066406 -4.109375 5.859375 -4.484375 C 5.660156 -4.867188 5.378906 -5.164062 5.015625 -5.375 C 4.660156 -5.582031 4.257812 -5.6875 3.8125 -5.6875 C 3.351562 -5.6875 2.941406 -5.582031 2.578125 -5.375 C 2.222656 -5.164062 1.941406 -4.867188 1.734375 -4.484375 C 1.535156 -4.109375 1.4375 -3.675781 1.4375 -3.1875 C 1.4375 -2.707031 1.535156 -2.273438 1.734375 -1.890625 C 1.941406 -1.515625 2.222656 -1.222656 2.578125 -1.015625 C 2.941406 -0.804688 3.351562 -0.703125 3.8125 -0.703125 Z M 3.8125 -0.703125 "/></g></g></g><g fill="#000000" fill-opacity="1"><g transform="translate(87.178827, 50.332595)"><g/></g></g><g fill="#000000" fill-opacity="1"><g transform="translate(90.360113, 50.332595)"><g><path d="M 1.390625 -9.015625 L 2.1875 -9.015625 L 2.1875 2.359375 L 1.390625 2.359375 Z M 1.390625 -9.015625 "/></g></g></g><g fill="#000000" fill-opacity="1"><g transform="translate(93.942097, 50.332595)"><g/></g></g><g fill="#000000" fill-opacity="1"><g transform="translate(97.123382, 50.332595)"><g><path d="M 1.390625 -8.5 L 4.84375 -8.5 C 5.738281 -8.5 6.53125 -8.316406 7.21875 -7.953125 C 7.90625 -7.597656 8.4375 -7.097656 8.8125 -6.453125 C 9.195312 -5.804688 9.390625 -5.070312 9.390625 -4.25 C 9.390625 -3.425781 9.195312 -2.691406 8.8125 -2.046875 C 8.4375 -1.398438 7.90625 -0.894531 7.21875 -0.53125 C 6.53125 -0.175781 5.738281 0 4.84375 0 L 1.390625 0 Z M 4.796875 -0.78125 C 5.535156 -0.78125 6.1875 -0.925781 6.75 -1.21875 C 7.3125 -1.507812 7.742188 -1.914062 8.046875 -2.4375 C 8.359375 -2.96875 8.515625 -3.570312 8.515625 -4.25 C 8.515625 -4.925781 8.359375 -5.523438 8.046875 -6.046875 C 7.742188 -6.566406 7.3125 -6.972656 6.75 -7.265625 C 6.1875 -7.566406 5.535156 -7.71875 4.796875 -7.71875 L 2.28125 -7.71875 L 2.28125 -0.78125 Z M 4.796875 -0.78125 "/></g></g></g><g fill="#000000" fill-opacity="1"><g transform="translate(107.152927, 50.332595)"><g><path d="M 6.765625 -2.921875 L 1.421875 -2.921875 C 1.472656 -2.265625 1.726562 -1.726562 2.1875 -1.3125 C 2.644531 -0.90625 3.226562 -0.703125 3.9375 -0.703125 C 4.332031 -0.703125 4.695312 -0.769531 5.03125 -0.90625 C 5.363281 -1.050781 5.648438 -1.265625 5.890625 -1.546875 L 6.375 -0.984375 C 6.09375 -0.640625 5.738281 -0.378906 5.3125 -0.203125 C 4.882812 -0.0234375 4.414062 0.0625 3.90625 0.0625 C 3.25 0.0625 2.664062 -0.078125 2.15625 -0.359375 C 1.65625 -0.640625 1.265625 -1.023438 0.984375 -1.515625 C 0.703125 -2.015625 0.5625 -2.570312 0.5625 -3.1875 C 0.5625 -3.8125 0.695312 -4.367188 0.96875 -4.859375 C 1.238281 -5.359375 1.609375 -5.742188 2.078125 -6.015625 C 2.554688 -6.296875 3.085938 -6.4375 3.671875 -6.4375 C 4.265625 -6.4375 4.796875 -6.296875 5.265625 -6.015625 C 5.734375 -5.742188 6.101562 -5.363281 6.375 -4.875 C 6.644531 -4.382812 6.78125 -3.820312 6.78125 -3.1875 Z M 3.671875 -5.6875 C 3.054688 -5.6875 2.539062 -5.488281 2.125 -5.09375 C 1.707031 -4.707031 1.472656 -4.195312 1.421875 -3.5625 L 5.953125 -3.5625 C 5.890625 -4.195312 5.648438 -4.707031 5.234375 -5.09375 C 4.816406 -5.488281 4.296875 -5.6875 3.671875 -5.6875 Z M 3.671875 -5.6875 "/></g></g></g><g fill="#000000" fill-opacity="1"><g transform="translate(114.486883, 50.332595)"><g><path d="M 4.484375 -6.4375 C 5.085938 -6.4375 5.628906 -6.300781 6.109375 -6.03125 C 6.597656 -5.757812 6.976562 -5.375 7.25 -4.875 C 7.53125 -4.382812 7.671875 -3.820312 7.671875 -3.1875 C 7.671875 -2.550781 7.53125 -1.984375 7.25 -1.484375 C 6.976562 -0.992188 6.601562 -0.613281 6.125 -0.34375 C 5.644531 -0.0703125 5.097656 0.0625 4.484375 0.0625 C 3.972656 0.0625 3.507812 -0.0390625 3.09375 -0.25 C 2.675781 -0.46875 2.332031 -0.785156 2.0625 -1.203125 L 2.0625 2.359375 L 1.203125 2.359375 L 1.203125 -6.390625 L 2.03125 -6.390625 L 2.03125 -5.125 C 2.289062 -5.539062 2.628906 -5.863281 3.046875 -6.09375 C 3.472656 -6.320312 3.953125 -6.4375 4.484375 -6.4375 Z M 4.4375 -0.703125 C 4.875 -0.703125 5.273438 -0.804688 5.640625 -1.015625 C 6.003906 -1.222656 6.289062 -1.515625 6.5 -1.890625 C 6.707031 -2.273438 6.8125 -2.707031 6.8125 -3.1875 C 6.8125 -3.675781 6.707031 -4.109375 6.5 -4.484375 C 6.289062 -4.859375 6.003906 -5.148438 5.640625 -5.359375 C 5.273438 -5.578125 4.875 -5.6875 4.4375 -5.6875 C 3.976562 -5.6875 3.566406 -5.578125 3.203125 -5.359375 C 2.847656 -5.148438 2.566406 -4.859375 2.359375 -4.484375 C 2.148438 -4.109375 2.046875 -3.675781 2.046875 -3.1875 C 2.046875 -2.707031 2.148438 -2.273438 2.359375 -1.890625 C 2.566406 -1.515625 2.847656 -1.222656 3.203125 -1.015625 C 3.566406 -0.804688 3.976562 -0.703125 4.4375 -0.703125 Z M 4.4375 -0.703125 "/></g></g></g><g fill="#000000" fill-opacity="1"><g transform="translate(122.719368, 50.332595)"><g><path d="M 1.203125 -9.015625 L 2.0625 -9.015625 L 2.0625 0 L 1.203125 0 Z M 1.203125 -9.015625 "/></g></g></g><g fill="#000000" fill-opacity="1"><g transform="translate(125.985654, 50.332595)"><g><path d="M 3.8125 0.0625 C 3.195312 0.0625 2.640625 -0.078125 2.140625 -0.359375 C 1.648438 -0.640625 1.265625 -1.023438 0.984375 -1.515625 C 0.703125 -2.015625 0.5625 -2.570312 0.5625 -3.1875 C 0.5625 -3.8125 0.703125 -4.367188 0.984375 -4.859375 C 1.265625 -5.359375 1.648438 -5.742188 2.140625 -6.015625 C 2.640625 -6.296875 3.195312 -6.4375 3.8125 -6.4375 C 4.425781 -6.4375 4.976562 -6.296875 5.46875 -6.015625 C 5.96875 -5.742188 6.351562 -5.359375 6.625 -4.859375 C 6.90625 -4.367188 7.046875 -3.8125 7.046875 -3.1875 C 7.046875 -2.570312 6.90625 -2.015625 6.625 -1.515625 C 6.351562 -1.023438 5.96875 -0.640625 5.46875 -0.359375 C 4.976562 -0.078125 4.425781 0.0625 3.8125 0.0625 Z M 3.8125 -0.703125 C 4.257812 -0.703125 4.664062 -0.804688 5.03125 -1.015625 C 5.394531 -1.222656 5.675781 -1.515625 5.875 -1.890625 C 6.070312 -2.273438 6.171875 -2.707031 6.171875 -3.1875 C 6.171875 -3.675781 6.070312 -4.109375 5.875 -4.484375 C 5.675781 -4.867188 5.394531 -5.164062 5.03125 -5.375 C 4.664062 -5.582031 4.257812 -5.6875 3.8125 -5.6875 C 3.351562 -5.6875 2.941406 -5.582031 2.578125 -5.375 C 2.222656 -5.164062 1.941406 -4.867188 1.734375 -4.484375 C 1.535156 -4.109375 1.4375 -3.675781 1.4375 -3.1875 C 1.4375 -2.707031 1.535156 -2.273438 1.734375 -1.890625 C 1.941406 -1.515625 2.222656 -1.222656 2.578125 -1.015625 C 2.941406 -0.804688 3.351562 -0.703125 3.8125 -0.703125 Z M 3.8125 -0.703125 "/></g></g></g><g fill="#000000" fill-opacity="1"><g transform="translate(133.598876, 50.332595)"><g><path d="M 6.5625 -6.390625 L 3.375 0.765625 C 3.113281 1.359375 2.8125 1.78125 2.46875 2.03125 C 2.132812 2.289062 1.726562 2.421875 1.25 2.421875 C 0.945312 2.421875 0.660156 2.367188 0.390625 2.265625 C 0.117188 2.171875 -0.109375 2.023438 -0.296875 1.828125 L 0.09375 1.1875 C 0.414062 1.507812 0.804688 1.671875 1.265625 1.671875 C 1.554688 1.671875 1.800781 1.585938 2 1.421875 C 2.207031 1.265625 2.398438 0.992188 2.578125 0.609375 L 2.859375 -0.015625 L 0.015625 -6.390625 L 0.90625 -6.390625 L 3.3125 -0.953125 L 5.71875 -6.390625 Z M 6.5625 -6.390625 "/></g></g></g></svg>